sfk_cyclingleg_theta_95_states
version=1
nRows=8
nColumns=53
inDegrees=yes

# SIMM Motion File Header:
name sfk_cyclingleg_theta_95_states
datacolumns 53
datarows 8
otherdata 1
range 0.28239023 0.28380848
endheader
time	/jointset/bb/crank_angle/value	/jointset/bb/crank_angle/speed	/jointset/spindle/pedal_angle_r/value	/jointset/spindle/pedal_angle_r/speed	/jointset/ground_pelvis/pelvis_tilt/value	/jointset/ground_pelvis/pelvis_tilt/speed	/jointset/ground_pelvis/pelvis_list/value	/jointset/ground_pelvis/pelvis_list/speed	/jointset/ground_pelvis/pelvis_rotation/value	/jointset/ground_pelvis/pelvis_rotation/speed	/jointset/ground_pelvis/pelvis_tx/value	/jointset/ground_pelvis/pelvis_tx/speed	/jointset/ground_pelvis/pelvis_ty/value	/jointset/ground_pelvis/pelvis_ty/speed	/jointset/ground_pelvis/pelvis_tz/value	/jointset/ground_pelvis/pelvis_tz/speed	/jointset/hip_r/hip_angle_r/value	/jointset/hip_r/hip_angle_r/speed	/jointset/hip_r/hip_adduction_r/value	/jointset/hip_r/hip_adduction_r/speed	/jointset/hip_r/hip_rotation_r/value	/jointset/hip_r/hip_rotation_r/speed	/jointset/knee_r/knee_angle_r/value	/jointset/knee_r/knee_angle_r/speed	/jointset/knee_r/tib_tx_r/value	/jointset/knee_r/tib_tx_r/speed	/jointset/knee_r/tib_ty_r/value	/jointset/knee_r/tib_ty_r/speed	/jointset/tib_pat_r/pat_angle_r/value	/jointset/tib_pat_r/pat_angle_r/speed	/jointset/tib_pat_r/pat_tx_r/value	/jointset/tib_pat_r/pat_tx_r/speed	/jointset/tib_pat_r/pat_ty_r/value	/jointset/tib_pat_r/pat_ty_r/speed	/jointset/ankle_r/ankle_angle_r/value	/jointset/ankle_r/ankle_angle_r/speed	/jointset/subtalar_r/subtalar_angle_r/value	/jointset/subtalar_r/subtalar_angle_r/speed	/jointset/mtp_r/mtp_angle_r/value	/jointset/mtp_r/mtp_angle_r/speed	/forceset/bifemlh_r/activation	/forceset/bifemlh_r/fiber_length	/forceset/bifemsh_r/activation	/forceset/bifemsh_r/fiber_length	/forceset/glut_max2_r/activation	/forceset/glut_max2_r/fiber_length	/forceset/vas_int_r/activation	/forceset/vas_int_r/fiber_length	/forceset/med_gas_r/activation	/forceset/med_gas_r/fiber_length	/forceset/tib_ant_r/activation	/forceset/tib_ant_r/fiber_length
      0.28239023	   -145.72134224	   -480.13863232	    157.91181337	    470.80862142	      0.00000000	      0.00000000	      0.00000000	      0.00000000	     -0.00000000	     -0.00000000	     -0.10000000	      0.00000000	     -0.05000000	     -0.00000000	      0.00000000	      0.00000000	     41.68277594	   -155.85156885	      4.37619124	     -0.25090780	      1.43940709	     11.60010442	    -51.89091694	    129.46045982	      0.00407218	     -0.01456967	     -0.47357660	      0.03649341	     17.15795335	     -5.12167649	      0.04515040	      0.03620613	     -0.02322677	     -0.00495329	     22.80759308	     16.94788872	     -0.00000000	     -0.00000000	      0.00000000	      0.00000000	     -0.01091562	      0.12437023	     -0.01091562	      0.17077737	     -0.01091562	      0.13211240	     -0.01091562	      0.12344965	     -0.01091562	      0.14878373	     -0.01091562	      0.11593947
      0.28244594	   -145.74808929	   -480.13863232	    157.93803756	    470.69698341	      0.00000000	      0.00000000	      0.00000000	      0.00000000	     -0.00000000	     -0.00000000	     -0.10000000	      0.00000000	     -0.05000000	     -0.00000000	      0.00000000	      0.00000000	     41.67409661	   -155.75533062	      4.37617727	     -0.25073603	      1.44005285	     11.58422662	    -51.88371041	    129.26941686	      0.00407137	     -0.01455239	     -0.47357457	      0.03643650	     17.15766818	     -5.11668410	      0.04515242	      0.03615072	     -0.02322704	     -0.00494627	     22.80853673	     16.93134141	     -0.00000000	     -0.00000000	      0.00000000	      0.00000000	     -0.01092280	      0.12436457	     -0.01092280	      0.17078159	     -0.01092280	      0.13210567	     -0.01092280	      0.12344375	     -0.01092280	      0.14879101	     -0.01092280	      0.11593862
      0.28255475	   -145.80033125	   -480.13863232	    157.98924034	    470.47858672	      0.00000000	      0.00000000	      0.00000000	      0.00000000	     -0.00000000	     -0.00000000	     -0.10000000	      0.00000000	     -0.05000000	     -0.00000000	      0.00000000	      0.00000000	     41.65715973	   -155.56706901	      4.37615001	     -0.25039707	      1.44131160	     11.55315775	    -51.86966545	    128.89579881	      0.00406979	     -0.01451851	     -0.47357061	      0.03632524	     17.15711199	     -5.10688330	      0.04515635	      0.03604237	     -0.02322758	     -0.00493252	     22.81037720	     16.89885869	     -0.00000000	     -0.00000000	      0.00000000	      0.00000000	     -0.01093680	      0.12435351	     -0.01093680	      0.17078982	     -0.01093680	      0.13209253	     -0.01093680	      0.12343225	     -0.01093680	      0.14879622	     -0.01093680	      0.11593697
      0.28309878	   -146.06154106	   -480.13863232	    158.24489641	    469.37972585	      0.00000000	      0.00000000	      0.00000000	      0.00000000	     -0.00000000	     -0.00000000	     -0.10000000	      0.00000000	     -0.05000000	     -0.00000000	      0.00000000	      0.00000000	     41.57278376	   -154.62000524	      4.37601426	     -0.24863341	      1.44755438	     11.39669104	    -51.80005227	    127.01828482	      0.00406193	     -0.01434690	     -0.47355100	      0.03576706	     17.15434721	     -5.05689268	      0.04517581	      0.03549852	     -0.02323025	     -0.00486337	     22.81952587	     16.73321531	     -0.00000000	     -0.00000000	      0.00000000	      0.00000000	     -0.01100685	      0.12429819	     -0.01100685	      0.17083063	     -0.01100685	      0.13202704	     -0.01100685	      0.12337521	     -0.01100685	      0.14887841	     -0.01100685	      0.11592876
      0.28315318	   -146.08766204	   -480.13863232	    158.27042906	    469.26920983	      0.00000000	      0.00000000	      0.00000000	      0.00000000	     -0.00000000	     -0.00000000	     -0.10000000	      0.00000000	     -0.05000000	     -0.00000000	      0.00000000	      0.00000000	     41.56437456	   -154.52477189	      4.37600074	     -0.24845074	      1.44817397	     11.38094151	    -51.79314722	    126.82967074	      0.00406115	     -0.01432954	     -0.47354906	      0.03571107	     17.15407224	     -5.05180318	      0.04517774	      0.03544394	     -0.02323051	     -0.00485642	     22.82043575	     16.71635488	     -0.00000000	     -0.00000000	      0.00000000	      0.00000000	     -0.01101385	      0.12429265	     -0.01101385	      0.17083468	     -0.01101385	      0.13202051	     -0.01101385	      0.12336955	     -0.01101385	      0.14883539	     -0.01101385	      0.11592794
      0.28322249	   -146.12094078	   -480.13863232	    158.30294955	    469.12824408	      0.00000000	      0.00000000	      0.00000000	      0.00000000	     -0.00000000	     -0.00000000	     -0.10000000	      0.00000000	     -0.05000000	     -0.00000000	      0.00000000	      0.00000000	     41.55366855	   -154.40330376	      4.37598353	     -0.24821636	      1.44896209	     11.36084916	    -51.78436491	    126.58914510	      0.00406016	     -0.01430736	     -0.47354658	      0.03563969	     17.15372232	     -5.04529524	      0.04518019	      0.03537435	     -0.02323085	     -0.00484755	     22.82159362	     16.69479631	     -0.00000000	     -0.00000000	      0.00000000	      0.00000000	     -0.01102278	      0.12428560	     -0.01102278	      0.17083983	     -0.01102278	      0.13201220	     -0.01102278	      0.12336235	     -0.01102278	      0.14883506	     -0.01102278	      0.11592690
      0.28356904	   -146.28733447	   -480.13863232	    158.46540507	    468.42063093	      0.00000000	      0.00000000	      0.00000000	      0.00000000	     -0.00000000	     -0.00000000	     -0.10000000	      0.00000000	     -0.05000000	     -0.00000000	      0.00000000	      0.00000000	     41.50026509	   -153.79363522	      4.37589771	     -0.24701666	      1.45288177	     11.25993242	    -51.74070387	    125.38270701	      0.00405522	     -0.01419559	     -0.47353430	      0.03528200	     17.15197955	     -5.01235534	      0.04519239	      0.03502554	     -0.02323252	     -0.00480303	     22.82736042	     16.58569281	     -0.00000000	     -0.00000000	      0.00000000	      0.00000000	     -0.01106740	      0.12425033	     -0.01106740	      0.17086544	     -0.01106740	      0.13197069	     -0.01106740	      0.12332651	     -0.01106740	      0.14884130	     -0.01106740	      0.11592171
      0.28380848	   -146.40229649	   -480.13863232	    158.57750258	    467.92903030	      0.00000000	      0.00000000	      0.00000000	      0.00000000	     -0.00000000	     -0.00000000	     -0.10000000	      0.00000000	     -0.05000000	     -0.00000000	      0.00000000	      0.00000000	     41.46349216	   -153.37014963	      4.37583867	     -0.24616075	      1.45556940	     11.18976589	    -51.71078303	    124.54547079	      0.00405183	     -0.01411749	     -0.47352588	      0.03503412	     17.15078218	     -4.98920760	      0.04520075	      0.03478371	     -0.02323366	     -0.00477211	     22.83132246	     16.50903697	     -0.00000000	     -0.00000000	      0.00000000	      0.00000000	     -0.01109822	      0.12422594	     -0.01109822	      0.17088299	     -0.01109822	      0.13194209	     -0.01109822	      0.12330193	     -0.01109822	      0.14885440	     -0.01109822	      0.11591814
